<svg width="349" height="105" viewBox="0 0 349 105" fill="none" xmlns="http://www.w3.org/2000/svg">
<path fill-rule="evenodd" clip-rule="evenodd" d="M3.25065 0H0V28.4617H13.8153V13.0111L17.8786 13.0111V41.4727H0V54.4837H17.8786V91.8907H31.6938V54.4837H38.4183L38.2483 54.6429L59.3242 77.1953V91.8907H73.1398L72.7335 71.9673L56.7993 54.4837H73.1398V41.4727V13.0111V0H13.8153H3.25065ZM59.3242 41.4727V13.0111H31.6938V41.4727L59.3242 41.4727ZM138.153 13.0111V91.8907H151.968V13.0111H161.72V78.8794V91.8907H175.535H185.287H199.103V78.8794V13.0111H208.854V91.8907H222.67L222.67 13.0111L222.67 0H208.854H199.103H185.287V13.0111V78.8794H175.535V13.0111V0H161.72H151.968H138.153V13.0111ZM82.8916 43.9123V78.8794V91.8907H96.7066H114.586H128.401V78.8794V13.0111V0H114.586H96.7066H82.8916V13.0111V28.4617H96.7066V13.0111H114.586V78.8794H96.7066V43.9123H107.272V30.9013H96.7066H82.8916V43.9123ZM287.683 13.0111V91.8907H301.498V13.0111H311.25V78.8794V91.8907H325.065H334.817H348.632V78.8794V0H334.817V78.8794H325.065V13.0111V0H311.25H301.498H287.683V13.0111ZM232.422 46.3519H246.237V91.8907H232.422V46.3519ZM246.237 0H232.422V13.0111V28.4617H246.237V13.0111H264.115V30.9013H232.422V43.9123H264.115V91.8907H277.931V13.0111V0H264.115H246.237ZM22.9214 102.581C22.9214 102.207 22.7891 101.918 22.5243 101.716C22.2635 101.514 21.7905 101.309 21.1052 101.102C20.42 100.896 19.875 100.666 19.4701 100.412C18.6954 99.9258 18.308 99.2906 18.308 98.508C18.308 97.8223 18.5863 97.2573 19.1431 96.8129C19.7037 96.3691 20.4298 96.1469 21.3213 96.1469C21.9131 96.1469 22.4406 96.256 22.9039 96.4741C23.3672 96.6922 23.7312 97.0038 23.996 97.4092C24.2607 97.8107 24.3931 98.2562 24.3931 98.7476H22.9214C22.9214 98.3032 22.7813 97.9563 22.501 97.7074C22.2246 97.4539 21.8275 97.3275 21.3096 97.3275C20.8269 97.3275 20.4512 97.4307 20.1826 97.6372C19.9178 97.8438 19.7855 98.1321 19.7855 98.5022C19.7855 98.8137 19.9295 99.0747 20.2176 99.2848C20.5057 99.4913 20.9807 99.6937 21.6425 99.8927C22.3043 100.088 22.8358 100.312 23.2368 100.564C23.6378 100.814 23.9317 101.102 24.1186 101.429C24.3055 101.753 24.3989 102.133 24.3989 102.569C24.3989 103.278 24.1264 103.843 23.5813 104.264C23.0402 104.68 22.3043 104.889 21.3739 104.889C20.7588 104.889 20.1923 104.776 19.6745 104.55C19.1606 104.32 18.7596 104.005 18.4715 103.603C18.1873 103.202 18.0452 102.735 18.0452 102.201H19.5227C19.5227 102.684 19.6823 103.058 20.0015 103.323C20.3208 103.588 20.7782 103.72 21.3739 103.72C21.8878 103.72 22.2732 103.617 22.5302 103.41C22.791 103.2 22.9214 102.924 22.9214 102.581ZM70.6464 104.129C71.2308 103.619 71.5653 102.91 71.6511 102.002H70.1797C70.1015 102.61 69.9165 103.044 69.6249 103.305C69.3327 103.567 68.8968 103.697 68.3165 103.697C67.6822 103.697 67.1993 103.455 66.8683 102.973C66.5413 102.489 66.3778 101.788 66.3778 100.868V100.115C66.3854 99.207 66.5604 98.5196 66.9031 98.052C67.2497 97.5804 67.7443 97.3449 68.3866 97.3449C68.9397 97.3449 69.3582 97.4812 69.6423 97.7538C69.9304 98.023 70.1096 98.4627 70.1797 99.0747H71.6511C71.5577 98.1437 71.225 97.4226 70.6522 96.9127C70.08 96.4022 69.3246 96.1469 68.3866 96.1469C67.6898 96.1469 67.0747 96.3123 66.5413 96.6435C66.012 96.9748 65.605 97.4464 65.321 98.0578C65.0363 98.6693 64.8943 99.3764 64.8943 100.179V100.974C64.9059 101.757 65.052 102.445 65.3326 103.036C65.6126 103.629 66.0097 104.086 66.5239 104.41C67.0416 104.729 67.6393 104.889 68.3165 104.889C69.2858 104.889 70.0626 104.636 70.6464 104.129ZM115.569 101.494H113.922V104.772H112.445V96.2641H115.434C116.415 96.2641 117.173 96.484 117.706 96.9243C118.24 97.3646 118.506 98.0015 118.506 98.8352C118.506 99.4037 118.368 99.8811 118.091 100.267C117.819 100.649 117.437 100.943 116.947 101.149L118.857 104.696V104.772H117.274L115.569 101.494ZM113.922 100.307H115.44C115.939 100.307 116.328 100.183 116.608 99.9333C116.888 99.6804 117.029 99.3358 117.029 98.8996C117.029 98.4436 116.898 98.0909 116.637 97.8414C116.38 97.592 115.995 97.4638 115.481 97.4557H113.922V100.307ZM159.463 104.772H160.935V96.2641H159.463V104.772ZM203.696 101.611V104.772H202.219V96.2641H205.471C206.421 96.2641 207.174 96.5112 207.731 97.0061C208.292 97.5009 208.572 98.1553 208.572 98.9692C208.572 99.8034 208.298 100.452 207.749 100.915C207.204 101.379 206.439 101.611 205.454 101.611H203.696ZM203.696 100.425H205.471C205.997 100.425 206.398 100.302 206.674 100.056C206.951 99.8069 207.089 99.4483 207.089 98.9814C207.089 98.5213 206.949 98.1553 206.668 97.8826C206.388 97.6059 206.003 97.4638 205.512 97.4557H203.696V100.425ZM252.828 97.4557H255.48V96.2641H248.735V97.4557H251.363V104.772H252.828V97.4557ZM301.039 100.974H297.546V103.591H301.628V104.772H296.069V96.2641H301.588V97.4557H297.546V99.8051H301.039V100.974ZM343.777 101.494H345.424L347.129 104.772H348.711V104.696L346.802 101.149C347.292 100.943 347.674 100.649 347.946 100.267C348.223 99.8811 348.361 99.4037 348.361 98.8352C348.361 98.0015 348.094 97.3646 347.561 96.9243C347.027 96.484 346.27 96.2641 345.289 96.2641H342.299V104.772H343.777V101.494ZM345.295 100.307H343.777V97.4557H345.336C345.85 97.4638 346.235 97.592 346.492 97.8414C346.753 98.0909 346.883 98.4436 346.883 98.8996C346.883 99.3358 346.743 99.6804 346.463 99.9333C346.183 100.183 345.794 100.307 345.295 100.307Z" fill="white"/>
</svg>
